<?xml version="1.0" standalone="no"?>
<!DOCTYPE svg PUBLIC "-//W3C//DTD SVG 20010904//EN"
 "http://www.w3.org/TR/2001/REC-SVG-20010904/DTD/svg10.dtd">
<svg version="1.0" xmlns="http://www.w3.org/2000/svg"
 width="150.000000pt" height="150.000000pt" viewBox="0 0 150.000000 150.000000"
 preserveAspectRatio="xMidYMid meet">
<metadata>
Created by potrace 1.11, written by Peter Selinger 2001-2013
</metadata>
<g transform="translate(0.000000,150.000000) scale(0.100000,-0.100000)"
fill="#000000" stroke="none">
<path d="M0 1086 c0 -266 4 -417 10 -421 6 -3 10 -14 10 -23 0 -15 -2 -15 -10
-2 -6 10 -10 -97 -10 -312 l0 -328 750 0 750 0 0 575 0 575 -114 0 c-66 0
-117 -4 -121 -10 -3 -6 4 -10 18 -10 39 0 87 -12 87 -21 0 -5 -9 -18 -20 -29
-11 -11 -20 -24 -20 -28 0 -12 -81 -86 -110 -101 -52 -26 -57 -34 -63 -108 -7
-87 -22 -122 -62 -143 -54 -28 -66 -44 -59 -78 4 -18 9 -32 13 -32 9 0 33 -84
33 -112 -1 -40 -14 -92 -29 -115 -13 -20 -21 -22 -66 -17 -29 3 -59 6 -67 5
-14 -1 -131 0 -155 2 -5 0 -24 -3 -42 -7 -18 -4 -34 -3 -37 3 -4 6 -13 8 -21
4 -19 -7 -19 16 0 41 8 11 12 29 9 43 -9 33 12 29 49 -11 25 -26 43 -35 84
-41 64 -8 108 10 143 61 26 39 61 160 52 183 -7 19 -31 -26 -32 -61 0 -52 -39
-43 -40 9 0 12 -7 29 -17 38 -15 16 -17 15 -32 -9 -14 -24 -49 -35 -63 -20 -4
3 0 17 8 32 20 39 4 48 -61 33 -30 -7 -55 -14 -55 -17 0 -2 9 -13 20 -24 20
-20 19 -40 -1 -40 -6 0 -8 4 -5 9 3 5 -1 12 -10 15 -8 3 -12 2 -9 -4 8 -13 -1
-13 -27 1 -13 7 -18 7 -14 0 4 -5 -2 -14 -12 -20 -16 -8 -21 -5 -32 23 -10 26
-17 32 -34 28 -20 -4 -20 -4 -3 9 17 13 17 17 2 51 -20 49 -21 158 -1 158 8 0
18 -5 21 -10 4 -7 14 -6 28 1 19 9 20 8 6 -3 -27 -23 -30 -46 -8 -62 27 -19
77 -5 104 29 25 31 39 32 52 4 7 -18 20 -23 65 -26 55 -4 57 -3 73 26 8 17 23
31 33 31 9 0 28 3 41 7 l24 6 -6 -81 c-3 -45 -1 -85 4 -88 5 -3 9 -1 9 5 0 5
13 12 29 16 16 3 34 12 39 18 14 18 30 76 38 135 6 44 4 52 -10 52 -9 0 -16 5
-16 10 0 6 -9 10 -19 10 -11 0 -23 5 -26 10 -5 8 -11 8 -19 1 -7 -6 -16 -8
-19 -4 -4 3 -10 -8 -13 -25 -6 -28 -11 -32 -38 -32 -17 1 -49 9 -71 19 l-39
19 37 7 c21 4 36 10 33 13 -8 7 -116 5 -123 -2 -6 -5 -10 -27 -12 -63 -1 -8
-14 -13 -31 -13 -32 0 -70 30 -70 55 0 20 -32 35 -74 35 -43 0 -50 -24 -11
-34 28 -7 22 -18 -23 -43 -36 -21 -42 -15 -42 42 0 62 -17 79 -69 69 -18 -4
-37 -2 -45 5 -8 7 -23 11 -33 10 -30 -4 -104 37 -119 66 -20 38 -17 61 8 79
21 15 14 16 -93 16 -64 0 -118 3 -121 6 -3 3 -4 14 -1 24 5 19 18 20 247 22
151 2 241 7 242 13 2 19 16 45 26 45 5 0 6 -4 3 -10 -3 -5 0 -10 9 -10 13 0
13 3 0 30 -10 19 -14 51 -12 92 3 62 3 62 38 71 19 5 43 9 53 10 9 1 17 4 17
7 0 9 30 5 62 -8 30 -12 98 -13 98 -2 0 11 -71 29 -140 35 -36 3 -94 8 -130
12 -36 3 -183 8 -327 10 l-263 4 0 -415z m490 -153 c0 -5 -4 -15 -10 -23 -11
-18 -25 -7 -17 15 6 15 27 21 27 8z m426 -120 c-4 -4 -11 -1 -16 7 -16 25 -11
35 7 17 9 -9 13 -20 9 -24z m-229 11 c-3 -3 -12 -4 -19 -1 -8 3 -5 6 6 6 11 1
17 -2 13 -5z m-587 -239 c16 -19 0 -19 -26 0 -16 12 -16 14 -3 15 9 0 22 -7
29 -15z m593 -65 c3 -11 2 -20 -3 -20 -8 0 -20 24 -20 41 0 17 17 1 23 -21z
m217 0 c0 -5 -7 -10 -16 -10 -8 0 -12 5 -9 10 3 6 10 10 16 10 5 0 9 -4 9 -10z
m355 -185 c17 -24 36 -45 43 -45 6 0 12 -4 12 -10 0 -5 7 -10 15 -10 8 0 15
-4 15 -8 0 -14 -23 -32 -42 -32 -10 0 -18 -4 -18 -10 0 -5 -6 -10 -14 -10 -7
0 -19 -7 -26 -15 -7 -9 -15 -13 -18 -10 -3 3 -11 0 -19 -6 -10 -9 -13 -7 -13
10 0 27 -27 38 -53 21 -25 -15 -190 -15 -195 0 -5 15 -427 13 -452 -2 -15 -10
-22 -9 -37 3 -10 9 -39 23 -65 33 -56 21 -80 41 -97 80 l-12 28 31 -26 c37
-31 94 -35 122 -9 16 14 23 15 38 5 11 -7 25 -12 32 -12 7 0 26 -7 42 -15 16
-9 36 -13 43 -11 7 3 13 1 13 -4 0 -4 13 -11 30 -15 41 -9 425 -9 439 0 7 4
45 15 84 24 65 15 71 18 71 41 0 14 -3 31 -8 38 -4 6 -4 12 1 12 4 0 22 -20
38 -45z"/>
<path d="M1415 1479 c-44 -4 -104 -9 -133 -10 -29 -1 -55 -6 -58 -10 -3 -5
-13 -9 -22 -9 -23 0 -122 -98 -147 -145 -12 -22 -37 -47 -60 -60 -35 -19 -51
-22 -115 -18 -105 7 -129 7 -177 3 -51 -5 -57 -26 -13 -41 17 -6 30 -17 30
-25 0 -8 5 -14 10 -14 6 0 20 -10 31 -21 17 -17 19 -23 8 -30 -9 -5 30 -9 96
-10 127 -2 146 0 160 11 6 5 23 11 39 14 34 6 30 2 42 46 l10 35 192 3 192 2
0 145 c0 80 -1 144 -2 144 -2 -1 -39 -5 -83 -10z"/>
<path d="M820 713 c0 -7 11 -25 25 -40 13 -15 25 -23 25 -16 0 7 -11 25 -25
40 -13 15 -25 23 -25 16z"/>
</g>
</svg>
